<?xml version="1.0" encoding="utf-8"?>
<!DOCTYPE svg PUBLIC "-//W3C//DTD SVG 1.0//EN" "http://www.w3.org/TR/2001/REC-SVG-20010904/DTD/svg10.dtd">
<svg version="1.0" xmlns="http://www.w3.org/2000/svg" width="1200px" height="1200px" viewBox="0 0 1200 1200" preserveAspectRatio="xMidYMid meet">
 <g fill="#000000">
  <path d="M774.73 914.77 c-0.94 -1.05 -1.29 -11.84 -1.05 -37.15 l0.35 -35.63 28.59 -0.35 c20.04 -0.23 29.06 0.12 30.12 1.05 0.94 0.70 1.64 3.40 1.64 5.86 l0 4.57 9.96 0 9.96 0 0 -9.96 0 -9.84 -179.53 -0.47 c-197.23 -0.35 -183.87 0.12 -213.63 -7.38 -34.69 -8.79 -67.73 -27.19 -93.87 -52.38 -21.91 -21.09 -33.87 -37.03 -46.76 -62.81 -18.87 -37.73 -26.37 -82.50 -21.68 -129.14 9.02 -88.71 72.30 -164.53 157.97 -189.02 5.86 -1.64 16.76 -4.22 24.02 -5.63 12.89 -2.46 15.35 -2.58 152.81 -2.93 l139.80 -0.47 0.23 -41.25 0.35 -41.25 70.31 0 70.31 0 0.59 65.63 c0.35 36.09 0.47 68.55 0.23 72.30 -0.47 6.21 -0.70 6.56 -4.10 7.27 -1.88 0.35 -93.63 0.70 -203.79 0.70 -197.70 0 -200.51 0 -212.23 2.46 -33.40 6.68 -62.23 21.68 -84.61 43.71 -28.36 28.01 -45.70 63.98 -49.69 103.24 -4.92 48.75 20.74 105.70 62.46 138.28 21.21 16.41 39.96 25.31 68.09 31.99 l12.89 3.05 134.53 0.35 134.41 0.47 0 -11.25 0 -11.13 -133.83 0 c-143.44 0 -140.27 0.12 -162.77 -5.98 -27.30 -7.38 -55.78 -28.71 -73.24 -54.96 -9.26 -13.95 -14.53 -25.78 -18.87 -42.07 -2.46 -9.26 -3.16 -14.77 -3.63 -31.64 -0.59 -23.09 0.47 -32.46 5.86 -49.34 15.70 -49.45 55.66 -84.14 107.23 -93.16 8.55 -1.52 30.59 -1.76 144.61 -1.76 l134.53 0 0.35 -7.97 0.35 -7.85 27.54 -0.35 c15.12 -0.12 28.71 0 30.23 0.35 l2.58 0.59 0 38.09 0 38.09 -2.58 0.59 c-1.52 0.35 -74.41 0.70 -162.07 0.94 l-159.38 0.23 -8.20 2.70 c-26.60 9.02 -46.05 27.77 -54.84 52.85 -5.16 14.41 -5.04 26.84 0.12 42.07 4.45 12.89 9.73 21.56 19.34 31.52 11.02 11.60 20.27 16.99 38.32 22.38 5.86 1.76 21.21 1.99 167.58 2.58 l161.13 0.59 0.35 41.95 0.23 41.84 39.84 0 c24.02 0 39.96 0.47 40.43 1.17 0.35 0.59 0.70 33.05 0.82 72.19 0 59.06 -0.23 71.25 -1.52 72.07 -0.94 0.59 -32.34 1.05 -69.73 1.05 -56.25 0 -68.44 -0.23 -69.49 -1.64z m80.74 -542.11 l0 -10.55 -10.55 0 -10.55 0 0 10.55 0 10.55 10.55 0 10.55 0 0 -10.55z"/>
 </g>
 <g fill="#ffffff">
  <path d="M0 600 l0 -600 600 0 600 0 0 600 0 600 -600 0 -600 0 0 -600z m910.31 311.84 c1.29 -0.82 1.52 -13.71 1.52 -68.67 -0.12 -37.15 -0.47 -68.09 -0.82 -68.67 -0.35 -0.59 -18.40 -1.05 -40.31 -1.05 l-39.84 0 -0.23 -41.84 -0.35 -41.95 -161.13 -0.59 c-146.37 -0.59 -161.72 -0.82 -167.58 -2.58 -18.05 -5.39 -27.30 -10.78 -38.32 -22.38 -9.61 -9.96 -14.88 -18.63 -19.34 -31.52 -3.40 -9.84 -3.75 -12.19 -3.75 -24.96 0 -12.66 0.35 -15 3.52 -24.14 8.91 -25.20 28.36 -43.83 54.96 -52.85 l8.20 -2.70 159.38 -0.23 c87.66 -0.23 160.55 -0.59 162.07 -0.94 l2.58 -0.59 0 -34.57 0 -34.57 -2.58 -0.59 c-1.52 -0.35 -13.48 -0.47 -26.72 -0.35 l-24.02 0.35 -0.35 7.97 -0.35 7.85 -134.53 0 c-146.13 0 -143.09 -0.12 -164.41 6.56 -19.45 6.09 -36.21 16.05 -51.56 30.82 -16.88 16.05 -28.71 35.04 -35.86 57.54 -5.16 16.41 -6.45 26.60 -5.74 45.94 0.94 27.30 7.50 47.70 22.38 70.08 17.46 26.25 45.94 47.58 73.24 54.96 22.50 6.09 19.34 5.98 162.77 5.98 l133.83 0 0 14.65 0 14.77 -137.93 -0.47 -138.05 -0.35 -12.89 -3.05 c-28.13 -6.68 -46.88 -15.59 -68.09 -31.99 -43.01 -33.52 -67.97 -91.05 -62.58 -144.02 2.34 -23.44 7.38 -40.43 18.40 -61.99 22.97 -45.12 64.22 -75.82 116.02 -86.25 11.72 -2.46 14.53 -2.46 212.23 -2.46 110.16 0 201.91 -0.35 203.91 -0.70 3.28 -0.70 3.52 -1.17 3.98 -6.45 0.12 -3.28 0.12 -34.10 -0.23 -68.79 l-0.59 -62.93 -66.80 0 -66.80 0 -0.35 41.25 -0.23 41.25 -139.80 0.47 c-137.46 0.35 -139.92 0.47 -152.81 2.93 -33.87 6.45 -60.35 17.23 -87.66 35.51 -13.59 9.14 -33.87 27.66 -45.12 41.48 -21.56 26.37 -37.73 59.41 -45 92.11 -11.13 50.04 -4.80 103.01 17.46 147.66 12.89 25.78 24.84 41.72 46.76 62.81 26.13 25.20 59.18 43.59 93.87 52.38 29.77 7.50 16.41 7.03 213.63 7.38 l179.53 0.47 0 13.36 0 13.48 -13.48 0 -13.48 0 0 -4.57 c0 -2.46 -0.70 -5.16 -1.64 -5.86 -1.05 -0.94 -9.14 -1.29 -26.60 -1.05 l-25.08 0.35 -0.35 32.11 c-0.23 22.62 0.12 32.58 1.05 33.63 1.05 1.41 12.66 1.64 65.98 1.64 35.51 0 65.27 -0.47 66.09 -1.05z"/>
  <path d="M830.86 372.66 l0 -14.06 14.06 0 14.06 0 0 14.06 0 14.06 -14.06 0 -14.06 0 0 -14.06z"/>
 </g>
</svg>